<svg width="16" height="16" viewBox="0 0 16 16" fill="none" xmlns="http://www.w3.org/2000/svg">
<path d="M7.27308 6H8.59549V4.66667H7.27308V6ZM7.93429 13.3333C5.01839 13.3333 2.64467 10.94 2.64467 8C2.64467 5.06 5.01839 2.66667 7.93429 2.66667C10.8502 2.66667 13.2239 5.06 13.2239 8C13.2239 10.94 10.8502 13.3333 7.93429 13.3333ZM7.93429 1.33334C7.06598 1.33334 6.20618 1.50577 5.40398 1.84081C4.60177 2.17584 3.87286 2.6669 3.25888 3.28596C2.01889 4.5362 1.32227 6.23189 1.32227 8C1.32227 9.76811 2.01889 11.4638 3.25888 12.714C3.87286 13.3331 4.60177 13.8242 5.40398 14.1592C6.20618 14.4942 7.06598 14.6667 7.93429 14.6667C9.6879 14.6667 11.3697 13.9643 12.6097 12.714C13.8497 11.4638 14.5463 9.76811 14.5463 8C14.5463 7.12452 14.3753 6.25762 14.043 5.44878C13.7107 4.63994 13.2237 3.90501 12.6097 3.28596C11.9957 2.6669 11.2668 2.17584 10.4646 1.84081C9.66239 1.50577 8.80259 1.33334 7.93429 1.33334ZM7.27308 11.3333H8.59549V7.33334H7.27308V11.3333Z" fill="#495456"/>
</svg>
